name rise37.2698peak67.6939fall79.5734.mot
datacolumns 19
datarows 24
range 15.34662400000000 15.38493900000000
endheader
time	ground_force1_vx	ground_force1_vy	ground_force1_vz	ground_force1_px	ground_force1_py	ground_force1_pz	ground_force2_vx	ground_force2_vy	ground_force2_vz	ground_force2_px	ground_force2_py	ground_force2_pz	ground_torque1_x	ground_torque1_y	ground_torque1_z	ground_torque2_x	ground_torque2_y	ground_torque2_z	
15.34662400000000	64.71712300000000	784.10762999999997	55.43996400000000	0.32583800000000	0.00000000000000	0.10773800000000	0.00000000000000	0.00000000000000	0.00000000000000	0.00000000000000	0.00000000000000	0.00000000000000	0.00000000000000	21.88853800000000	0.00000000000000	0.00000000000000	0.00000000000000	0.00000000000000	
15.34828100000000	64.24985400000000	787.23740499999997	55.51472400000000	0.32512400000000	0.00000000000000	0.10769900000000	0.00000000000000	0.00000000000000	0.00000000000000	0.00000000000000	0.00000000000000	0.00000000000000	0.00000000000000	21.90556000000000	0.00000000000000	0.00000000000000	0.00000000000000	0.00000000000000	
15.34994700000000	63.77583800000000	790.21635200000003	55.58628600000000	0.32443700000000	0.00000000000000	0.10766100000000	0.00000000000000	0.00000000000000	0.00000000000000	0.00000000000000	0.00000000000000	0.00000000000000	0.00000000000000	21.92434700000000	0.00000000000000	0.00000000000000	0.00000000000000	0.00000000000000	
15.35161400000000	63.29523700000000	793.04183399999999	55.65451200000000	0.32377400000000	0.00000000000000	0.10762200000000	0.00000000000000	0.00000000000000	0.00000000000000	0.00000000000000	0.00000000000000	0.00000000000000	0.00000000000000	21.94480700000000	0.00000000000000	0.00000000000000	0.00000000000000	0.00000000000000	
15.35327800000000	62.80817700000000	795.71137999999996	55.71921800000000	0.32313500000000	0.00000000000000	0.10758300000000	0.00000000000000	0.00000000000000	0.00000000000000	0.00000000000000	0.00000000000000	0.00000000000000	0.00000000000000	21.96681400000000	0.00000000000000	0.00000000000000	0.00000000000000	0.00000000000000	
15.35494300000000	62.31475100000000	798.22270200000003	55.78017100000000	0.32251600000000	0.00000000000000	0.10754300000000	0.00000000000000	0.00000000000000	0.00000000000000	0.00000000000000	0.00000000000000	0.00000000000000	0.00000000000000	21.99020500000000	0.00000000000000	0.00000000000000	0.00000000000000	0.00000000000000	
15.35661800000000	61.81502400000000	800.57370700000001	55.83710300000000	0.32191700000000	0.00000000000000	0.10750300000000	0.00000000000000	0.00000000000000	0.00000000000000	0.00000000000000	0.00000000000000	0.00000000000000	0.00000000000000	22.01478900000000	0.00000000000000	0.00000000000000	0.00000000000000	0.00000000000000	
15.35828000000000	61.30903500000000	802.76251000000002	55.88970900000000	0.32133500000000	0.00000000000000	0.10746400000000	0.00000000000000	0.00000000000000	0.00000000000000	0.00000000000000	0.00000000000000	0.00000000000000	0.00000000000000	22.04034700000000	0.00000000000000	0.00000000000000	0.00000000000000	0.00000000000000	
15.35994700000000	60.79680100000000	804.78745000000004	55.93765000000000	0.32076800000000	0.00000000000000	0.10742400000000	0.00000000000000	0.00000000000000	0.00000000000000	0.00000000000000	0.00000000000000	0.00000000000000	0.00000000000000	22.06663300000000	0.00000000000000	0.00000000000000	0.00000000000000	0.00000000000000	
15.36162300000000	60.27832100000000	806.64710000000002	55.98056700000000	0.32021300000000	0.00000000000000	0.10738400000000	0.00000000000000	0.00000000000000	0.00000000000000	0.00000000000000	0.00000000000000	0.00000000000000	0.00000000000000	22.09338000000000	0.00000000000000	0.00000000000000	0.00000000000000	0.00000000000000	
15.36328000000000	59.75357900000000	808.34027600000002	56.01807500000000	0.31966800000000	0.00000000000000	0.10734400000000	0.00000000000000	0.00000000000000	0.00000000000000	0.00000000000000	0.00000000000000	0.00000000000000	0.00000000000000	22.12030200000000	0.00000000000000	0.00000000000000	0.00000000000000	0.00000000000000	
15.36494000000000	59.22254900000000	809.86605199999997	56.04977500000000	0.31913100000000	0.00000000000000	0.10730500000000	0.00000000000000	0.00000000000000	0.00000000000000	0.00000000000000	0.00000000000000	0.00000000000000	0.00000000000000	22.14709500000000	0.00000000000000	0.00000000000000	0.00000000000000	0.00000000000000	
15.36660900000000	58.68519500000000	811.22376099999997	56.07525600000000	0.31860000000000	0.00000000000000	0.10726600000000	0.00000000000000	0.00000000000000	0.00000000000000	0.00000000000000	0.00000000000000	0.00000000000000	0.00000000000000	22.17344200000000	0.00000000000000	0.00000000000000	0.00000000000000	0.00000000000000	
15.36828100000000	58.14148000000000	812.41301299999998	56.09410300000000	0.31807200000000	0.00000000000000	0.10722700000000	0.00000000000000	0.00000000000000	0.00000000000000	0.00000000000000	0.00000000000000	0.00000000000000	0.00000000000000	22.19901600000000	0.00000000000000	0.00000000000000	0.00000000000000	0.00000000000000	
15.36993900000000	57.59136500000000	813.43368999999996	56.10589700000000	0.31754400000000	0.00000000000000	0.10718900000000	0.00000000000000	0.00000000000000	0.00000000000000	0.00000000000000	0.00000000000000	0.00000000000000	0.00000000000000	22.22348400000000	0.00000000000000	0.00000000000000	0.00000000000000	0.00000000000000	
15.37162100000000	57.03481400000000	814.28596200000004	56.11022400000000	0.31701400000000	0.00000000000000	0.10715100000000	0.00000000000000	0.00000000000000	0.00000000000000	0.00000000000000	0.00000000000000	0.00000000000000	0.00000000000000	22.24650600000000	0.00000000000000	0.00000000000000	0.00000000000000	0.00000000000000	
15.37327700000000	56.47179700000000	814.97028399999999	56.10667900000000	0.31648000000000	0.00000000000000	0.10711400000000	0.00000000000000	0.00000000000000	0.00000000000000	0.00000000000000	0.00000000000000	0.00000000000000	0.00000000000000	22.26774400000000	0.00000000000000	0.00000000000000	0.00000000000000	0.00000000000000	
15.37494000000000	55.90229300000000	815.48740299999997	56.09486700000000	0.31593900000000	0.00000000000000	0.10707700000000	0.00000000000000	0.00000000000000	0.00000000000000	0.00000000000000	0.00000000000000	0.00000000000000	0.00000000000000	22.28685800000000	0.00000000000000	0.00000000000000	0.00000000000000	0.00000000000000	
15.37661300000000	55.32629300000000	815.83835799999997	56.07441300000000	0.31539000000000	0.00000000000000	0.10704100000000	0.00000000000000	0.00000000000000	0.00000000000000	0.00000000000000	0.00000000000000	0.00000000000000	0.00000000000000	22.30351500000000	0.00000000000000	0.00000000000000	0.00000000000000	0.00000000000000	
15.37827500000000	54.74380200000000	816.02448300000003	56.04496000000000	0.31482800000000	0.00000000000000	0.10700600000000	0.00000000000000	0.00000000000000	0.00000000000000	0.00000000000000	0.00000000000000	0.00000000000000	0.00000000000000	22.31739000000000	0.00000000000000	0.00000000000000	0.00000000000000	0.00000000000000	
15.37994100000000	54.15484200000000	816.04740300000003	56.00617900000000	0.31425300000000	0.00000000000000	0.10697200000000	0.00000000000000	0.00000000000000	0.00000000000000	0.00000000000000	0.00000000000000	0.00000000000000	0.00000000000000	22.32816500000000	0.00000000000000	0.00000000000000	0.00000000000000	0.00000000000000	
15.38160700000000	53.55945400000000	815.90903600000001	55.95776500000000	0.31366200000000	0.00000000000000	0.10693900000000	0.00000000000000	0.00000000000000	0.00000000000000	0.00000000000000	0.00000000000000	0.00000000000000	0.00000000000000	22.33553800000000	0.00000000000000	0.00000000000000	0.00000000000000	0.00000000000000	
15.38327800000000	52.95770100000000	815.61158799999998	55.89944900000000	0.31305200000000	0.00000000000000	0.10690700000000	0.00000000000000	0.00000000000000	0.00000000000000	0.00000000000000	0.00000000000000	0.00000000000000	0.00000000000000	22.33922000000000	0.00000000000000	0.00000000000000	0.00000000000000	0.00000000000000	
15.38493900000000	52.34966800000000	815.15755200000001	55.83099400000000	0.31242300000000	0.00000000000000	0.10687500000000	0.00000000000000	0.00000000000000	0.00000000000000	0.00000000000000	0.00000000000000	0.00000000000000	0.00000000000000	22.33894000000000	0.00000000000000	0.00000000000000	0.00000000000000	0.00000000000000	
